<svg width="239" height="37" viewBox="0 0 239 37" fill="none" xmlns="http://www.w3.org/2000/svg" style="fill:#FBFBFA">
<path d="M74.9999 30.5C80.9999 30.5 80.4999 36.5 74.9999 36.5C69.4999 36.5 16.4996 34 -6.10352e-05 34C16.4996 34 67.4999 30.5 74.9999 30.5Z" />
<path d="M164 30.5C158 30.5 158.5 36.5 164 36.5C169.5 36.5 222.5 34 239 34C222.5 34 171.5 30.5 164 30.5Z" />
<path d="M89 36.5C119.5 36.5 119.5 1 119.5 1C119.5 1 119.5 36.5 150 36.5H89Z" />
<path d="M94 30C119.5 30 119.5 0 119.5 0C119.5 0 119.5 30 145 30H94Z" />
<path d="M100 23C119.5 23 119.5 0 119.5 0C119.5 0 119.5 23 139 23H100Z" />
<circle cx="154" cy="33.5" r="3" transform="rotate(180 154 33.5)" />
<circle cx="85" cy="33.5" r="3" transform="rotate(180 85 33.5)" />
</svg>
