<svg width="813" height="551" viewBox="0 0 813 551" fill="none" xmlns="http://www.w3.org/2000/svg">
<path d="M260.273 329.307C258.604 329.494 257.001 329.311 255.466 328.759C253.952 328.18 252.59 327.343 251.381 326.247C250.168 325.127 249.178 323.837 248.411 322.378C247.641 320.894 247.163 319.33 246.979 317.684C246.786 315.967 246.902 314.312 247.327 312.718C247.75 311.101 248.419 309.638 249.334 308.327C250.274 307.014 251.422 305.944 252.778 305.115C254.155 304.261 255.691 303.738 257.384 303.548C259.84 303.273 261.925 303.558 263.638 304.404C265.351 305.251 266.706 306.451 267.701 308.006L265.425 310C264.52 308.604 263.383 307.621 262.015 307.05C260.647 306.479 259.188 306.28 257.637 306.454C256.349 306.599 255.212 307.004 254.224 307.67C253.236 308.336 252.414 309.189 251.758 310.229C251.122 311.242 250.669 312.368 250.397 313.606C250.15 314.841 250.098 316.103 250.242 317.391C250.395 318.75 250.754 320.014 251.32 321.182C251.907 322.324 252.658 323.314 253.573 324.153C254.486 324.969 255.508 325.579 256.64 325.983C257.772 326.387 258.958 326.52 260.199 326.381C261.653 326.218 262.995 325.693 264.224 324.806C265.453 323.92 266.566 322.648 267.564 320.99L267.937 324.317C265.952 327.293 263.398 328.956 260.273 329.307ZM266.833 318.029L261.359 318.643L261.086 316.21L269.279 315.292L270.7 327.956L267.981 328.261L266.833 318.029ZM284.294 326.794C282.887 326.951 281.571 326.845 280.346 326.476C279.142 326.079 278.062 325.488 277.104 324.702C276.168 323.889 275.395 322.925 274.787 321.81C274.203 320.692 273.837 319.478 273.69 318.166C273.492 316.401 273.717 314.745 274.365 313.2C275.012 311.654 276.002 310.359 277.334 309.316C278.69 308.271 280.298 307.644 282.159 307.435C284.043 307.224 285.728 307.493 287.212 308.245C288.719 308.969 289.935 310.016 290.861 311.385C291.809 312.728 292.376 314.234 292.564 315.904C292.59 316.142 292.605 316.382 292.608 316.623C292.632 316.838 292.639 317.006 292.628 317.128L277.138 318.866C277.369 320.071 277.825 321.119 278.505 322.009C279.205 322.872 280.051 323.526 281.043 323.97C282.032 324.391 283.063 324.541 284.136 324.42C285.281 324.292 286.322 323.885 287.26 323.2C288.221 322.513 288.841 321.683 289.118 320.71L291.921 321.156C291.617 322.108 291.1 322.987 290.369 323.794C289.663 324.597 288.783 325.264 287.732 325.792C286.704 326.318 285.558 326.652 284.294 326.794ZM276.786 316.696L289.522 315.267C289.29 314.061 288.824 313.027 288.123 312.164C287.422 311.3 286.578 310.658 285.589 310.238C284.6 309.818 283.545 309.67 282.424 309.796C281.326 309.919 280.342 310.295 279.471 310.924C278.6 311.553 277.918 312.366 277.426 313.363C276.958 314.358 276.744 315.468 276.786 316.696ZM307.401 322.897C307.152 323.046 306.812 323.241 306.38 323.483C305.949 323.725 305.443 323.95 304.862 324.16C304.282 324.37 303.658 324.513 302.99 324.588C302.227 324.673 301.509 324.621 300.835 324.431C300.159 324.217 299.598 323.845 299.153 323.316C298.704 322.762 298.43 322.044 298.331 321.162L296.923 308.604L294.383 308.889L294.106 306.421L296.646 306.136L295.948 299.911L299.096 299.558L299.794 305.783L303.98 305.313L304.257 307.782L300.071 308.251L301.371 319.843C301.494 320.505 301.777 320.98 302.22 321.269C302.66 321.533 303.154 321.635 303.703 321.573C304.323 321.504 304.883 321.332 305.384 321.059C305.885 320.785 306.213 320.592 306.369 320.477L307.401 322.897ZM321.261 322.285L319.166 303.61L322.315 303.257L324.409 321.932L321.261 322.285ZM318.773 300.104L318.332 296.168L321.48 295.815L321.921 299.751L318.773 300.104ZM339.956 319.246C339.707 319.395 339.366 319.59 338.935 319.831C338.503 320.073 337.997 320.299 337.417 320.509C336.837 320.719 336.213 320.861 335.545 320.936C334.782 321.022 334.063 320.969 333.39 320.779C332.714 320.565 332.153 320.194 331.707 319.664C331.259 319.111 330.985 318.393 330.886 317.51L329.477 304.953L326.937 305.238L326.66 302.769L329.2 302.484L328.502 296.259L331.65 295.906L332.349 302.131L336.534 301.662L336.811 304.13L332.626 304.6L333.926 316.191C334.048 316.853 334.331 317.329 334.774 317.617C335.214 317.882 335.709 317.983 336.257 317.922C336.877 317.852 337.438 317.681 337.938 317.407C338.439 317.134 338.767 316.94 338.924 316.826L339.956 319.246ZM345.637 311.907C345.541 311.048 345.548 310.25 345.659 309.514C345.793 308.774 346.043 308.094 346.408 307.473C346.794 306.826 347.32 306.236 347.984 305.703C348.382 305.368 348.837 305.015 349.351 304.644C349.889 304.269 350.385 303.851 350.84 303.39C351.317 302.902 351.69 302.353 351.96 301.743C352.227 301.109 352.315 300.387 352.224 299.576C352.122 298.669 351.823 297.942 351.327 297.394C350.852 296.82 350.263 296.415 349.561 296.179C348.858 295.944 348.125 295.87 347.362 295.955C346.575 296.043 345.853 296.281 345.196 296.669C344.539 297.057 343.978 297.542 343.512 298.126C343.067 298.683 342.713 299.29 342.448 299.948L340.181 298.789C340.501 297.763 341.003 296.862 341.689 296.084C342.399 295.304 343.222 294.681 344.16 294.213C345.098 293.746 346.091 293.453 347.141 293.336C348.023 293.237 348.898 293.283 349.765 293.476C350.653 293.642 351.463 293.974 352.195 294.471C352.951 294.966 353.579 295.62 354.081 296.433C354.583 297.246 354.899 298.237 355.03 299.406C355.132 300.312 355.1 301.101 354.934 301.771C354.767 302.442 354.496 303.04 354.12 303.565C353.769 304.088 353.338 304.559 352.83 304.978C352.321 305.397 351.788 305.807 351.229 306.208C350.691 306.582 350.17 306.991 349.664 307.434C349.182 307.875 348.797 308.425 348.509 309.085C348.242 309.719 348.167 310.56 348.285 311.61L345.637 311.907ZM346.556 319.447L346.09 315.297L348.738 315.001L349.203 319.151L346.556 319.447ZM369.154 291.192L378.331 303.567L384.609 289.459L388.115 289.066L380.266 306.284L381.305 315.55L378.085 315.911L377.038 306.573L365.612 291.59L369.154 291.192ZM399.822 313.835C398.414 313.993 397.11 313.886 395.909 313.513C394.706 313.117 393.637 312.524 392.703 311.735C391.767 310.923 391.006 309.957 390.422 308.84C389.838 307.722 389.474 306.519 389.329 305.231C389.182 303.919 389.269 302.654 389.592 301.434C389.914 300.215 390.443 299.117 391.178 298.141C391.911 297.141 392.822 296.326 393.911 295.697C395.021 295.041 396.267 294.636 397.651 294.48C399.058 294.323 400.363 294.442 401.567 294.838C402.768 295.211 403.837 295.803 404.773 296.616C405.731 297.402 406.502 298.354 407.086 299.472C407.67 300.59 408.036 301.804 408.183 303.116C408.327 304.404 408.239 305.658 407.916 306.877C407.594 308.097 407.067 309.207 406.334 310.206C405.598 311.183 404.675 311.999 403.565 312.654C402.477 313.284 401.229 313.677 399.822 313.835ZM392.553 304.906C392.697 306.194 393.103 307.331 393.769 308.319C394.459 309.305 395.304 310.055 396.304 310.571C397.301 311.063 398.372 311.244 399.517 311.116C400.661 310.988 401.664 310.561 402.525 309.837C403.409 309.11 404.067 308.191 404.498 307.08C404.95 305.942 405.104 304.729 404.959 303.442C404.815 302.154 404.397 301.017 403.707 300.032C403.041 299.044 402.196 298.293 401.172 297.78C400.173 297.265 399.1 297.071 397.956 297.199C396.811 297.328 395.809 297.766 394.951 298.514C394.091 299.239 393.433 300.158 392.979 301.271C392.548 302.382 392.406 303.594 392.553 304.906ZM412.918 304.433L411.662 293.235L414.81 292.882L415.998 303.471C416.212 305.379 416.706 306.773 417.481 307.652C418.256 308.531 419.299 308.897 420.611 308.75C421.47 308.654 422.272 308.382 423.019 307.936C423.788 307.464 424.455 306.846 425.021 306.082C425.588 305.318 425.996 304.439 426.247 303.445L424.935 291.746L428.083 291.393L429.776 306.49C429.819 306.872 429.923 307.15 430.087 307.325C430.273 307.473 430.546 307.539 430.906 307.523L431.179 309.955C430.827 310.043 430.543 310.099 430.329 310.123C430.141 310.169 429.951 310.202 429.76 310.223C429.164 310.29 428.631 310.169 428.162 309.859C427.69 309.526 427.411 309.086 427.326 308.54L427.009 306.366C426.353 307.84 425.377 309.036 424.079 309.955C422.805 310.871 421.357 311.419 419.735 311.601C417.78 311.821 416.227 311.331 415.079 310.131C413.927 308.908 413.207 307.008 412.918 304.433ZM444.405 292.351C442.833 292.552 441.483 293.114 440.355 294.037C439.248 294.934 438.521 296.091 438.172 297.506L439.464 309.026L436.316 309.379L434.221 290.704L437.155 290.375L437.641 294.704C438.14 293.344 438.87 292.212 439.832 291.307C440.814 290.375 441.884 289.797 443.042 289.57C443.281 289.543 443.483 289.521 443.65 289.502C443.817 289.483 443.962 289.479 444.084 289.489L444.405 292.351ZM469.405 306.03C467.879 306.201 466.476 305.972 465.198 305.343C463.92 304.713 462.87 303.853 462.047 302.762L463.315 314.067L460.167 314.42L457.217 288.125L460.008 287.812L460.401 291.318C461.012 290.09 461.875 289.064 462.99 288.238C464.102 287.389 465.362 286.885 466.769 286.728C468.057 286.583 469.267 286.713 470.399 287.117C471.531 287.522 472.542 288.133 473.43 288.951C474.319 289.769 475.044 290.738 475.604 291.859C476.185 292.953 476.547 294.132 476.689 295.396C476.887 297.161 476.711 298.823 476.161 300.382C475.636 301.938 474.79 303.228 473.625 304.252C472.457 305.253 471.051 305.845 469.405 306.03ZM468.134 303.419C469.064 303.315 469.878 303.031 470.574 302.566C471.292 302.075 471.877 301.478 472.329 300.775C472.803 300.046 473.136 299.248 473.329 298.381C473.521 297.514 473.568 296.639 473.469 295.757C473.365 294.827 473.099 293.963 472.671 293.166C472.268 292.366 471.732 291.677 471.063 291.1C470.418 290.52 469.682 290.096 468.855 289.826C468.049 289.53 467.193 289.433 466.287 289.535C465.714 289.599 465.13 289.773 464.534 290.057C463.962 290.339 463.424 290.713 462.921 291.18C462.415 291.623 462 292.117 461.674 292.66C461.349 293.204 461.159 293.769 461.104 294.355L461.702 299.685C462.15 300.456 462.71 301.142 463.381 301.743C464.053 302.344 464.805 302.803 465.637 303.12C466.467 303.413 467.299 303.513 468.134 303.419ZM490.585 287.172C489.013 287.372 487.663 287.934 486.535 288.857C485.428 289.754 484.701 290.911 484.352 292.326L485.644 303.846L482.496 304.199L480.401 285.524L483.335 285.195L483.821 289.524C484.32 288.164 485.05 287.032 486.012 286.127C486.994 285.196 488.064 284.617 489.222 284.39C489.46 284.363 489.663 284.341 489.83 284.322C489.997 284.303 490.142 284.299 490.263 284.31L490.585 287.172ZM504.13 302.135C502.723 302.293 501.419 302.185 500.218 301.813C499.014 301.417 497.945 300.824 497.012 300.035C496.075 299.223 495.315 298.257 494.731 297.14C494.146 296.022 493.782 294.819 493.637 293.531C493.49 292.219 493.578 290.953 493.9 289.734C494.222 288.514 494.751 287.417 495.487 286.441C496.22 285.441 497.131 284.626 498.219 283.997C499.329 283.341 500.576 282.935 501.959 282.78C503.366 282.622 504.672 282.742 505.875 283.138C507.076 283.51 508.145 284.103 509.081 284.916C510.039 285.702 510.81 286.654 511.394 287.772C511.978 288.89 512.344 290.104 512.491 291.416C512.636 292.704 512.547 293.958 512.225 295.177C511.903 296.397 511.375 297.506 510.642 298.506C509.906 299.483 508.983 300.298 507.874 300.954C506.785 301.584 505.537 301.977 504.13 302.135ZM496.861 293.206C497.006 294.493 497.411 295.631 498.077 296.619C498.768 297.604 499.612 298.355 500.612 298.871C501.609 299.363 502.68 299.544 503.825 299.416C504.97 299.288 505.973 298.861 506.833 298.137C507.718 297.41 508.375 296.491 508.806 295.38C509.258 294.242 509.412 293.029 509.267 291.741C509.123 290.454 508.706 289.317 508.016 288.332C507.349 287.344 506.504 286.593 505.481 286.08C504.481 285.565 503.409 285.371 502.264 285.499C501.119 285.628 500.118 286.066 499.26 286.814C498.399 287.539 497.742 288.458 497.287 289.571C496.856 290.682 496.714 291.894 496.861 293.206ZM517.113 283.906L514.573 284.191L514.296 281.722L516.836 281.438L516.792 281.044C516.688 280.114 516.731 279.203 516.921 278.313C517.108 277.398 517.448 276.551 517.94 275.771C518.432 274.992 519.084 274.351 519.898 273.849C520.708 273.323 521.698 272.995 522.866 272.864C523.749 272.765 524.57 272.769 525.331 272.877C526.092 272.985 526.775 273.15 527.379 273.372C528.007 273.591 528.528 273.823 528.942 274.066L527.844 276.544C527.345 276.19 526.686 275.913 525.867 275.715C525.072 275.515 524.233 275.464 523.35 275.563C522.444 275.665 521.718 275.975 521.173 276.495C520.651 277.013 520.287 277.645 520.081 278.393C519.896 279.114 519.846 279.844 519.928 280.584L519.985 281.084L529.537 280.013L531.631 298.688L528.483 299.041L526.665 282.835L520.262 283.553L522.079 299.759L518.931 300.112L517.113 283.906ZM547.175 296.003C546.926 296.151 546.586 296.346 546.154 296.588C545.722 296.83 545.216 297.055 544.636 297.265C544.056 297.475 543.432 297.618 542.764 297.693C542.001 297.778 541.282 297.726 540.609 297.536C539.933 297.322 539.372 296.95 538.926 296.421C538.478 295.867 538.204 295.149 538.105 294.267L536.697 281.709L534.156 281.994L533.88 279.526L536.42 279.241L535.721 273.016L538.87 272.663L539.568 278.888L543.754 278.418L544.031 280.887L539.845 281.356L541.145 292.948C541.268 293.61 541.55 294.086 541.993 294.374C542.433 294.639 542.928 294.74 543.476 294.679C544.097 294.609 544.657 294.437 545.158 294.164C545.658 293.89 545.987 293.697 546.143 293.583L547.175 296.003ZM557.536 296.145C555.985 296.318 554.502 296.231 553.087 295.883C551.669 295.511 550.413 294.867 549.32 293.951L550.288 291.596C551.473 292.477 552.627 293.073 553.748 293.382C554.87 293.69 555.991 293.782 557.112 293.656C558.4 293.512 559.422 293.156 560.18 292.588C560.934 291.996 561.258 291.223 561.151 290.269C561.074 289.577 560.802 289.089 560.335 288.803C559.892 288.514 559.277 288.306 558.49 288.177C557.7 288.024 556.764 287.863 555.682 287.694C554.352 287.457 553.221 287.174 552.29 286.843C551.36 286.513 550.632 286.051 550.106 285.458C549.581 284.865 549.263 284.079 549.154 283.102C549.02 281.909 549.218 280.873 549.747 279.992C550.273 279.088 551.049 278.361 552.074 277.811C553.123 277.259 554.339 276.905 555.723 276.75C557.106 276.595 558.382 276.669 559.551 276.972C560.72 277.276 561.757 277.8 562.662 278.543L561.475 280.886C560.65 280.206 559.777 279.736 558.854 279.478C557.929 279.195 556.918 279.115 555.821 279.238C555.177 279.311 554.554 279.465 553.953 279.701C553.348 279.914 552.866 280.246 552.506 280.697C552.144 281.124 552.003 281.695 552.083 282.411C552.15 283.007 552.358 283.467 552.708 283.79C553.08 284.086 553.589 284.319 554.236 284.488C554.907 284.654 555.711 284.829 556.65 285.014C558.102 285.262 559.364 285.531 560.435 285.821C561.53 286.109 562.4 286.542 563.044 287.122C563.689 287.702 564.076 288.564 564.204 289.709C564.402 291.474 563.889 292.932 562.666 294.084C561.44 295.211 559.73 295.898 557.536 296.145ZM254.617 388.691C254.484 387.499 254.703 386.436 255.274 385.502C255.867 384.542 256.733 383.757 257.872 383.146C259.011 382.535 260.367 382.142 261.941 381.965C262.776 381.871 263.667 381.844 264.613 381.883C265.556 381.898 266.401 381.996 267.146 382.178L266.993 380.819C266.833 379.388 266.277 378.315 265.328 377.6C264.376 376.862 263.112 376.581 261.538 376.757C260.513 376.872 259.544 377.174 258.633 377.663C257.743 378.125 256.812 378.761 255.84 379.57L254.447 377.48C255.569 376.509 256.716 375.753 257.887 375.211C259.055 374.645 260.295 374.289 261.607 374.141C263.992 373.874 265.951 374.33 267.484 375.511C269.015 376.667 269.913 378.426 270.177 380.788L271.064 388.694C271.107 389.076 271.211 389.354 271.375 389.529C271.561 389.677 271.834 389.743 272.194 389.726L272.467 392.159C272.163 392.242 271.892 392.308 271.656 392.359C271.444 392.407 271.267 392.439 271.124 392.455C270.384 392.538 269.801 392.398 269.374 392.035C268.971 391.67 268.72 391.263 268.621 390.815L268.418 389.643C267.724 390.783 266.754 391.713 265.506 392.433C264.259 393.152 262.991 393.584 261.703 393.729C260.463 393.868 259.326 393.742 258.292 393.351C257.255 392.936 256.414 392.33 255.769 391.533C255.122 390.712 254.738 389.765 254.617 388.691ZM266.93 388.651C267.178 388.285 267.368 387.925 267.497 387.573C267.624 387.196 267.674 386.889 267.647 386.65L267.386 384.325C266.615 384.121 265.816 383.994 264.989 383.942C264.159 383.866 263.351 383.872 262.564 383.96C260.966 384.139 259.702 384.607 258.772 385.363C257.864 386.093 257.471 387.007 257.595 388.104C257.661 388.7 257.882 389.267 258.256 389.805C258.652 390.316 259.179 390.715 259.84 391.004C260.524 391.289 261.331 391.38 262.261 391.275C263.239 391.166 264.148 390.871 264.987 390.39C265.824 389.885 266.472 389.306 266.93 388.651ZM285.482 374.579C283.911 374.779 282.561 375.341 281.433 376.265C280.326 377.162 279.598 378.318 279.25 379.734L280.542 391.253L277.394 391.607L275.299 372.932L278.233 372.603L278.718 376.931C279.218 375.571 279.948 374.439 280.909 373.534C281.892 372.603 282.962 372.024 284.12 371.797C284.358 371.771 284.561 371.748 284.728 371.729C284.895 371.71 285.039 371.706 285.161 371.717L285.482 374.579ZM299.135 389.53C297.728 389.688 296.412 389.582 295.187 389.212C293.983 388.816 292.903 388.225 291.945 387.439C291.009 386.626 290.236 385.662 289.628 384.547C289.044 383.429 288.678 382.214 288.531 380.902C288.333 379.137 288.558 377.482 289.206 375.936C289.854 374.39 290.844 373.096 292.176 372.053C293.531 371.007 295.14 370.38 297 370.172C298.884 369.96 300.569 370.23 302.054 370.981C303.56 371.706 304.776 372.753 305.702 374.122C306.65 375.465 307.217 376.971 307.405 378.64C307.432 378.879 307.446 379.119 307.449 379.36C307.473 379.575 307.48 379.743 307.47 379.865L291.979 381.602C292.211 382.808 292.666 383.856 293.346 384.746C294.046 385.609 294.892 386.263 295.884 386.707C296.873 387.127 297.904 387.277 298.978 387.157C300.122 387.029 301.164 386.622 302.101 385.937C303.062 385.25 303.682 384.419 303.959 383.447L306.762 383.893C306.458 384.845 305.941 385.724 305.211 386.53C304.504 387.334 303.625 388 302.573 388.529C301.545 389.055 300.399 389.388 299.135 389.53ZM291.627 379.432L304.363 378.004C304.131 376.798 303.665 375.763 302.964 374.9C302.264 374.037 301.419 373.395 300.43 372.975C299.441 372.554 298.386 372.407 297.265 372.533C296.168 372.656 295.183 373.032 294.312 373.661C293.441 374.29 292.759 375.103 292.267 376.1C291.799 377.094 291.586 378.205 291.627 379.432ZM340.229 381.66L340.55 384.522L323.306 386.457L320.457 361.056L337.379 359.158L337.7 362.02L323.998 363.557L324.921 371.785L336.834 370.449L337.135 373.132L325.222 374.468L326.205 383.233L340.229 381.66ZM350.168 383.444L340.739 365.591L344.031 365.222L351.656 380.234L355.765 363.906L358.842 363.561L353.602 383.058L350.168 383.444ZM372.657 381.283C371.25 381.441 369.934 381.335 368.709 380.965C367.505 380.569 366.424 379.978 365.467 379.192C364.53 378.379 363.758 377.415 363.15 376.3C362.566 375.182 362.2 373.967 362.053 372.656C361.855 370.891 362.08 369.235 362.728 367.689C363.375 366.144 364.365 364.849 365.697 363.806C367.053 362.761 368.661 362.133 370.522 361.925C372.406 361.713 374.09 361.983 375.575 362.734C377.082 363.459 378.298 364.506 379.224 365.875C380.172 367.218 380.739 368.724 380.926 370.394C380.953 370.632 380.968 370.872 380.971 371.113C380.995 371.328 381.002 371.496 380.991 371.618L365.501 373.356C365.732 374.561 366.188 375.609 366.867 376.499C367.568 377.362 368.414 378.016 369.406 378.46C370.395 378.881 371.426 379.031 372.499 378.91C373.644 378.782 374.685 378.375 375.623 377.69C376.584 377.003 377.203 376.173 377.481 375.2L380.284 375.646C379.98 376.598 379.463 377.477 378.732 378.283C378.025 379.087 377.146 379.753 376.095 380.282C375.067 380.808 373.921 381.142 372.657 381.283ZM365.148 371.185L377.885 369.757C377.653 368.551 377.186 367.517 376.486 366.653C375.785 365.79 374.94 365.148 373.951 364.728C372.962 364.308 371.907 364.16 370.786 364.286C369.689 364.409 368.705 364.785 367.834 365.414C366.963 366.043 366.281 366.856 365.789 367.853C365.321 368.848 365.107 369.958 365.148 371.185ZM394.472 362.354C392.901 362.554 391.551 363.116 390.423 364.04C389.316 364.937 388.588 366.093 388.24 367.508L389.532 379.028L386.384 379.381L384.289 360.706L387.223 360.377L387.708 364.706C388.208 363.346 388.938 362.214 389.899 361.309C390.882 360.378 391.952 359.799 393.11 359.572C393.348 359.545 393.551 359.523 393.718 359.504C393.885 359.485 394.029 359.481 394.151 359.492L394.472 362.354ZM407.391 377.242C406.127 377.384 404.93 377.265 403.801 376.884C402.692 376.477 401.707 375.875 400.845 375.079C399.98 374.258 399.269 373.299 398.711 372.203C398.177 371.103 397.841 369.933 397.702 368.693C397.554 367.381 397.618 366.118 397.892 364.904C398.191 363.687 398.672 362.595 399.336 361.627C400.022 360.632 400.861 359.826 401.854 359.207C402.845 358.565 403.984 358.171 405.272 358.027C406.822 357.853 408.212 358.083 409.443 358.718C410.697 359.35 411.783 360.207 412.701 361.287L412.284 357.566L415.075 357.253L417.145 375.714C417.343 377.479 417.081 379.017 416.359 380.33C415.661 381.64 414.619 382.687 413.234 383.47C411.875 384.274 410.313 384.776 408.548 384.974C406.449 385.209 404.69 385.032 403.272 384.442C401.853 383.853 400.632 382.976 399.608 381.81L401.252 379.996C402.114 381.01 403.16 381.726 404.391 382.143C405.645 382.558 406.939 382.691 408.275 382.541C409.42 382.412 410.445 382.08 411.351 381.544C412.283 381.029 412.988 380.31 413.464 379.387C413.964 378.461 414.142 377.355 413.997 376.067L413.628 372.775C413.065 373.998 412.212 375.011 411.071 375.815C409.953 376.617 408.727 377.093 407.391 377.242ZM408.068 374.558C408.736 374.483 409.366 374.292 409.96 373.984C410.553 373.676 411.091 373.301 411.573 372.861C412.052 372.397 412.442 371.894 412.744 371.353C413.045 370.812 413.226 370.273 413.287 369.734L412.685 364.368C412.255 363.547 411.693 362.849 411.001 362.275C410.306 361.676 409.545 361.243 408.718 360.973C407.888 360.68 407.055 360.58 406.221 360.674C405.267 360.781 404.431 361.08 403.713 361.571C403.019 362.059 402.449 362.679 402.002 363.429C401.552 364.156 401.231 364.953 401.038 365.819C400.845 366.686 400.797 367.549 400.894 368.408C400.998 369.338 401.264 370.202 401.691 370.999C402.116 371.772 402.651 372.449 403.296 373.029C403.94 373.608 404.676 374.033 405.503 374.302C406.331 374.572 407.185 374.657 408.068 374.558ZM431.233 358.23C429.662 358.431 428.312 358.993 427.184 359.916C426.077 360.813 425.349 361.969 425.001 363.385L426.293 374.905L423.145 375.258L421.05 356.583L423.984 356.254L424.469 360.583C424.969 359.223 425.699 358.09 426.66 357.185C427.642 356.254 428.713 355.675 429.871 355.449C430.109 355.422 430.312 355.399 430.479 355.381C430.646 355.362 430.79 355.358 430.912 355.368L431.233 358.23ZM444.886 373.182C443.479 373.339 442.163 373.233 440.938 372.864C439.734 372.467 438.654 371.876 437.696 371.09C436.76 370.277 435.987 369.313 435.379 368.198C434.795 367.08 434.429 365.866 434.282 364.554C434.084 362.789 434.309 361.133 434.957 359.588C435.604 358.042 436.594 356.747 437.926 355.704C439.282 354.659 440.89 354.032 442.751 353.823C444.635 353.612 446.319 353.882 447.804 354.633C449.311 355.357 450.527 356.404 451.453 357.773C452.401 359.116 452.968 360.622 453.156 362.292C453.182 362.53 453.197 362.77 453.2 363.011C453.224 363.226 453.231 363.394 453.22 363.516L437.73 365.254C437.961 366.46 438.417 367.507 439.096 368.397C439.797 369.26 440.643 369.914 441.635 370.358C442.624 370.779 443.655 370.929 444.728 370.808C445.873 370.68 446.914 370.273 447.852 369.589C448.813 368.901 449.433 368.071 449.71 367.098L452.513 367.544C452.209 368.496 451.692 369.375 450.961 370.182C450.255 370.985 449.375 371.652 448.324 372.18C447.296 372.706 446.15 373.04 444.886 373.182ZM437.377 363.084L450.114 361.655C449.882 360.449 449.416 359.415 448.715 358.552C448.014 357.688 447.17 357.046 446.181 356.626C445.192 356.206 444.137 356.058 443.016 356.184C441.918 356.307 440.934 356.683 440.063 357.312C439.192 357.941 438.51 358.754 438.018 359.751C437.55 360.746 437.336 361.857 437.377 363.084ZM466.917 370.71C465.51 370.868 464.194 370.762 462.969 370.392C461.766 369.996 460.685 369.405 459.727 368.619C458.791 367.806 458.019 366.842 457.411 365.727C456.826 364.609 456.461 363.394 456.313 362.083C456.115 360.318 456.34 358.662 456.988 357.116C457.636 355.571 458.626 354.276 459.958 353.233C461.314 352.188 462.922 351.56 464.782 351.352C466.666 351.14 468.351 351.41 469.836 352.161C471.342 352.886 472.558 353.933 473.485 355.302C474.432 356.645 475 358.151 475.187 359.821C475.214 360.059 475.229 360.299 475.231 360.54C475.255 360.755 475.262 360.923 475.252 361.045L459.761 362.783C459.993 363.988 460.448 365.036 461.128 365.926C461.828 366.789 462.675 367.443 463.666 367.887C464.655 368.308 465.686 368.458 466.76 368.337C467.905 368.209 468.946 367.802 469.883 367.117C470.845 366.43 471.464 365.6 471.741 364.627L474.544 365.073C474.241 366.025 473.723 366.904 472.993 367.71C472.286 368.514 471.407 369.18 470.355 369.709C469.327 370.235 468.181 370.569 466.917 370.71ZM459.409 360.612L472.145 359.184C471.913 357.978 471.447 356.944 470.746 356.08C470.046 355.217 469.201 354.575 468.212 354.155C467.223 353.735 466.168 353.587 465.047 353.713C463.95 353.836 462.966 354.212 462.094 354.841C461.223 355.47 460.541 356.283 460.049 357.28C459.581 358.275 459.368 359.385 459.409 360.612ZM496.851 366.991L493.702 367.344L492.531 356.897C492.309 354.918 491.837 353.509 491.115 352.673C490.414 351.809 489.444 351.447 488.204 351.586C487.345 351.683 486.511 351.994 485.7 352.519C484.913 353.042 484.228 353.711 483.643 354.525C483.079 355.313 482.708 356.2 482.529 357.186L483.793 368.455L480.644 368.808L478.55 350.133L481.412 349.812L481.861 353.819C482.263 352.881 482.821 352.045 483.536 351.313C484.251 350.581 485.089 349.98 486.051 349.509C487.012 349.039 488.042 348.743 489.139 348.62C490.212 348.499 491.129 348.602 491.89 348.927C492.672 349.226 493.306 349.71 493.792 350.38C494.299 351.023 494.689 351.813 494.963 352.748C495.261 353.681 495.473 354.708 495.599 355.829L496.851 366.991ZM502.39 366.369L501.941 362.362L504.588 362.065L505.038 366.072L502.39 366.369Z" fill="#578555"/>
<path d="M-382.977 148.765L766.873 17.7557" stroke="#D4D4D4" stroke-width="2"/>
<path d="M-372.7 238.963L777.15 107.954" stroke="#D4D4D4" stroke-width="2"/>
<path d="M-362.342 329.871L787.508 198.862" stroke="#D4D4D4" stroke-width="2"/>
<path d="M-352.066 420.07L797.784 289.061" stroke="#D4D4D4" stroke-width="2"/>
<path d="M-341.789 510.268L808.061 379.259" stroke="#D4D4D4" stroke-width="2"/>
<path d="M-316.543 467.496L-317.68 463.661L-318.365 463.864L-318.938 464.292L-316.543 467.496ZM-302.784 463.415L-301.647 467.25L-300.82 467.004L-300.167 466.44L-302.784 463.415ZM-271.559 436.4L-268.143 434.32L-270.601 430.282L-274.176 433.375L-271.559 436.4ZM-252.003 468.52L-255.42 470.6L-249.775 479.872L-248.054 469.154L-252.003 468.52ZM-241.726 404.517L-239.546 401.163L-244.701 397.814L-245.675 403.883L-241.726 404.517ZM-226.365 414.496L-228.545 417.85L-225.407 419.888L-223.164 416.893L-226.365 414.496ZM-214.021 398.009L-210.819 400.407L-210.338 399.765L-210.142 398.987L-214.021 398.009ZM-202.496 352.295L-205.245 349.389L-206.09 350.189L-206.375 351.317L-202.496 352.295ZM-187.391 338.008L-186.057 334.236L-188.363 333.421L-190.139 335.102L-187.391 338.008ZM-155.135 349.412L-156.468 353.183L-153.991 354.059L-152.203 352.133L-155.135 349.412ZM-139.486 332.55L-136.554 335.271L-136.179 334.866L-135.927 334.375L-139.486 332.55ZM-127.164 308.526L-124.762 305.327L-128.557 302.478L-130.723 306.701L-127.164 308.526ZM-110.695 320.892L-107.096 319.147L-107.518 318.275L-108.293 317.693L-110.695 320.892ZM-89.914 363.763L-93.5134 365.508L-92.6751 367.237L-90.8011 367.663L-89.914 363.763ZM-72.7357 367.67L-73.6228 371.57L-71.1689 372.129L-69.6036 370.158L-72.7357 367.67ZM-58.8332 350.169L-56.9091 346.662L-59.8668 345.039L-61.9653 347.681L-58.8332 350.169ZM-43.6616 358.493L-40.6891 355.817L-41.1429 355.313L-41.7374 354.986L-43.6616 358.493ZM-24.5045 379.768L-27.477 382.444L-26.7471 383.255L-25.7067 383.583L-24.5045 379.768ZM-8.88384 384.69L-10.086 388.505L-7.05788 389.459L-5.44123 386.727L-8.88384 384.69ZM8.65505 355.046L12.0977 357.083L12.4071 356.559L12.5473 355.968L8.65505 355.046ZM16 324.05L17.83 320.493L13.2861 318.155L12.1078 323.127L16 324.05ZM31.9976 332.28L30.1677 335.837L32.827 337.205L34.8915 335.041L31.9976 332.28ZM76.8424 285.283L79.7363 288.044L80.3556 287.395L80.6384 286.544L76.8424 285.283ZM84.9412 260.903L82.8114 257.517L81.5973 258.28L81.1451 259.642L84.9412 260.903ZM104.459 248.626L106.589 252.012L107.907 251.182L108.318 249.68L104.459 248.626ZM115.085 209.716L116.161 205.863L112.287 204.782L111.227 208.662L115.085 209.716ZM147.058 218.639L145.983 222.492L149.312 223.421L150.715 220.262L147.058 218.639ZM160.373 188.639L161.919 184.949L158.306 183.436L156.717 187.016L160.373 188.639ZM190.246 201.152L188.7 204.842L192.162 206.292L193.829 202.929L190.246 201.152ZM205.212 170.963L207.042 167.406L203.432 165.549L201.629 169.187L205.212 170.963ZM221.21 179.194L224.889 177.624L224.323 176.297L223.04 175.637L221.21 179.194ZM244.042 232.722L240.363 234.292L243.162 240.855L247.3 235.042L244.042 232.722ZM257.024 214.488L255.16 210.949L254.318 211.392L253.766 212.168L257.024 214.488ZM271.232 207.005L270.779 203.031L270.032 203.116L269.367 203.466L271.232 207.005ZM286.924 205.217L287.377 209.191L289.442 208.956L290.436 207.132L286.924 205.217ZM300.073 181.099L301.534 177.376L298.25 176.087L296.561 179.185L300.073 181.099ZM314.962 186.943L317.615 183.949L317.084 183.479L316.423 183.219L314.962 186.943ZM340.089 209.213L337.436 212.206L337.778 212.509L338.179 212.727L340.089 209.213ZM366.846 223.757L364.936 227.271L366.562 228.155L368.288 227.488L366.846 223.757ZM385.277 216.631L386.72 220.361L387.987 219.871L388.693 218.711L385.277 216.631ZM409.945 176.121L413.164 173.747L409.628 168.95L406.528 174.041L409.945 176.121ZM428.747 201.625L425.527 203.998L426.684 205.567L428.632 205.623L428.747 201.625ZM446.374 202.13L448.866 199.001L447.822 198.169L446.489 198.131L446.374 202.13ZM460.177 213.123L457.684 216.252L458.541 216.935L459.627 217.085L460.177 213.123ZM493.33 217.724L492.781 221.686L495.91 222.12L497.057 219.176L493.33 217.724ZM505.631 186.163L508.123 183.034L503.876 179.651L501.904 184.71L505.631 186.163ZM524.034 200.821L521.542 203.95L525.561 207.151L527.679 202.47L524.034 200.821ZM560.792 119.559L559.849 115.672L557.952 116.132L557.147 117.911L560.792 119.559ZM580.332 114.82L582.102 111.233L580.8 110.59L579.389 110.933L580.332 114.82ZM592.743 120.946L590.972 124.532L592.841 125.455L594.668 124.452L592.743 120.946ZM610.065 111.432L611.991 114.938L612.746 114.523L613.263 113.835L610.065 111.432ZM623.142 94.0248L624.436 90.2399L621.688 89.3004L619.944 91.6223L623.142 94.0248ZM639.683 99.68L642.344 96.6943L641.741 96.1565L640.977 95.8951L639.683 99.68ZM655.514 113.794L652.852 116.779L656.241 119.801L658.811 116.058L655.514 113.794ZM669.865 92.8901L669.412 88.9158L667.6 89.1223L666.568 90.6261L669.865 92.8901ZM686.384 91.008L686.837 94.9823L688.901 94.7471L689.896 92.9227L686.384 91.008ZM699.533 66.8904L702.837 64.6367L699.152 59.2326L696.021 64.9758L699.533 66.8904ZM718.618 94.8753L715.313 97.129L717.288 100.025L720.418 98.4472L718.618 94.8753ZM733.651 87.2982L735.451 90.8701L736.395 90.3943L736.981 89.5142L733.651 87.2982ZM760.796 46.5062L719.41 67.0126L757.862 92.601L760.796 46.5062ZM-341.902 491.454L-314.147 470.699L-318.938 464.292L-346.693 485.047L-341.902 491.454ZM-315.405 471.33L-301.647 467.25L-303.922 459.58L-317.68 463.661L-315.405 471.33ZM-300.167 466.44L-268.942 439.425L-274.176 433.375L-305.401 460.39L-300.167 466.44ZM-274.976 438.48L-255.42 470.6L-248.587 466.44L-268.143 434.32L-274.976 438.48ZM-248.054 469.154L-237.776 405.151L-245.675 403.883L-255.953 467.886L-248.054 469.154ZM-243.905 407.871L-228.545 417.85L-224.186 411.141L-239.546 401.163L-243.905 407.871ZM-223.164 416.893L-210.819 400.407L-217.223 395.612L-229.567 412.098L-223.164 416.893ZM-210.142 398.987L-198.617 353.273L-206.375 351.317L-217.899 397.032L-210.142 398.987ZM-199.747 355.201L-184.642 340.914L-190.139 335.102L-205.245 349.389L-199.747 355.201ZM-188.724 341.779L-156.468 353.183L-153.802 345.641L-186.057 334.236L-188.724 341.779ZM-152.203 352.133L-136.554 335.271L-142.418 329.829L-158.067 346.691L-152.203 352.133ZM-135.927 334.375L-123.605 310.352L-130.723 306.701L-143.046 330.724L-135.927 334.375ZM-129.565 311.725L-113.097 324.09L-108.293 317.693L-124.762 305.327L-129.565 311.725ZM-114.294 322.636L-93.5134 365.508L-86.3146 362.018L-107.096 319.147L-114.294 322.636ZM-90.8011 367.663L-73.6228 371.57L-71.8486 363.77L-89.0269 359.863L-90.8011 367.663ZM-69.6036 370.158L-55.7011 352.657L-61.9653 347.681L-75.8677 365.182L-69.6036 370.158ZM-60.7574 353.675L-45.5857 362L-41.7374 354.986L-56.9091 346.662L-60.7574 353.675ZM-46.6341 361.17L-27.477 382.444L-21.532 377.091L-40.6891 355.817L-46.6341 361.17ZM-25.7067 383.583L-10.086 388.505L-7.68165 380.875L-23.3023 375.953L-25.7067 383.583ZM-5.44123 386.727L12.0977 357.083L5.21247 353.009L-12.3264 382.653L-5.44123 386.727ZM12.5473 355.968L19.8923 324.972L12.1078 323.127L4.76284 354.123L12.5473 355.968ZM14.1701 327.606L30.1677 335.837L33.8275 328.723L17.83 320.493L14.1701 327.606ZM34.8915 335.041L79.7363 288.044L73.9484 282.521L29.1037 329.519L34.8915 335.041ZM80.6384 286.544L88.7372 262.164L81.1451 259.642L73.0464 284.022L80.6384 286.544ZM87.0709 264.288L106.589 252.012L102.329 245.24L82.8114 257.517L87.0709 264.288ZM108.318 249.68L118.944 210.77L111.227 208.662L100.6 247.572L108.318 249.68ZM114.01 213.569L145.983 222.492L148.134 214.787L116.161 205.863L114.01 213.569ZM150.715 220.262L164.03 190.261L156.717 187.016L143.402 217.017L150.715 220.262ZM158.828 192.328L188.7 204.842L191.791 197.463L161.919 184.949L158.828 192.328ZM193.829 202.929L208.796 172.74L201.629 169.187L186.662 199.376L193.829 202.929ZM203.383 174.52L219.38 182.751L223.04 175.637L207.042 167.406L203.383 174.52ZM217.531 180.763L240.363 234.292L247.721 231.153L224.889 177.624L217.531 180.763ZM247.3 235.042L260.283 216.808L253.766 212.168L240.783 230.402L247.3 235.042ZM258.888 218.027L273.096 210.544L269.367 203.466L255.16 210.949L258.888 218.027ZM271.684 210.979L287.377 209.191L286.471 201.243L270.779 203.031L271.684 210.979ZM290.436 207.132L303.585 183.014L296.561 179.185L283.412 203.302L290.436 207.132ZM298.612 184.823L313.501 190.666L316.423 183.219L301.534 177.376L298.612 184.823ZM312.309 189.936L337.436 212.206L342.742 206.219L317.615 183.949L312.309 189.936ZM338.179 212.727L364.936 227.271L368.756 220.243L341.999 205.698L338.179 212.727ZM368.288 227.488L386.72 220.361L383.834 212.9L365.403 220.026L368.288 227.488ZM388.693 218.711L413.361 178.201L406.528 174.041L381.861 214.55L388.693 218.711ZM406.725 178.495L425.527 203.998L431.966 199.251L413.164 173.747L406.725 178.495ZM428.632 205.623L446.26 206.128L446.489 198.131L428.861 197.626L428.632 205.623ZM443.882 205.258L457.684 216.252L462.669 209.995L448.866 199.001L443.882 205.258ZM459.627 217.085L492.781 221.686L493.88 213.762L460.726 209.161L459.627 217.085ZM497.057 219.176L509.358 187.615L501.904 184.71L489.603 216.271L497.057 219.176ZM503.139 189.292L521.542 203.95L526.526 197.692L508.123 183.034L503.139 189.292ZM527.679 202.47L564.436 121.208L557.147 117.911L520.39 199.173L527.679 202.47ZM561.735 123.447L581.274 118.707L579.389 110.933L559.849 115.672L561.735 123.447ZM578.561 118.407L590.972 124.532L594.513 117.359L582.102 111.233L578.561 118.407ZM594.668 124.452L611.991 114.938L608.14 107.926L590.817 117.44L594.668 124.452ZM613.263 113.835L626.34 96.4273L619.944 91.6223L606.867 109.03L613.263 113.835ZM621.848 97.8097L638.388 103.465L640.977 95.8951L624.436 90.2399L621.848 97.8097ZM637.021 102.666L652.852 116.779L658.176 110.808L642.344 96.6943L637.021 102.666ZM658.811 116.058L673.163 95.1541L666.568 90.6261L652.216 111.53L658.811 116.058ZM670.318 96.8644L686.837 94.9823L685.931 87.0337L669.412 88.9158L670.318 96.8644ZM689.896 92.9227L703.045 68.8051L696.021 64.9758L682.872 89.0934L689.896 92.9227ZM696.228 69.1441L715.313 97.129L721.922 92.6216L702.837 64.6367L696.228 69.1441ZM718.618 94.8753C720.418 98.4472 720.418 98.4472 720.418 98.4472C720.418 98.4472 720.418 98.4471 720.418 98.447C720.419 98.4465 720.418 98.447 720.42 98.4464C720.42 98.4462 720.421 98.4457 720.422 98.4454C720.422 98.4451 720.424 98.4443 720.425 98.4439C720.434 98.439 720.43 98.4409 720.444 98.4339C720.468 98.4221 720.482 98.4149 720.522 98.3947C720.59 98.3608 720.693 98.3084 720.823 98.243C721.084 98.1116 721.467 97.9184 721.941 97.6794C722.892 97.2002 724.22 96.5306 725.733 95.7683C728.757 94.2439 732.516 92.3496 735.451 90.8701L731.85 83.7262C728.915 85.2058 725.157 87.1001 722.132 88.6244C720.621 89.3864 719.291 90.0566 718.341 90.5356C717.865 90.7752 717.485 90.9671 717.222 91.0992C717.089 91.1666 716.993 91.2148 716.922 91.2508C716.891 91.266 716.857 91.2833 716.844 91.29C716.84 91.292 716.835 91.2945 716.832 91.2958C716.828 91.2981 716.827 91.2983 716.824 91.3C716.816 91.3041 716.826 91.299 716.819 91.3025C716.818 91.3028 716.818 91.303 716.818 91.3032C716.817 91.3032 716.817 91.3033 716.817 91.3033C716.817 91.3034 716.817 91.3034 718.618 94.8753ZM736.981 89.5142L744.182 78.6927L737.522 74.2607L730.321 85.0822L736.981 89.5142Z" fill="#70A26D"/>
<path d="M551.783 24.276L599.526 443.307" stroke="#A3A3A3" stroke-width="2" stroke-dasharray="4 4"/>
<circle cx="563.022" cy="119.76" r="11.7945" transform="rotate(-6.5 563.022 119.76)" fill="#70A26D"/>
</svg>
